<?xml version="1.0" encoding="UTF-8"?>
<svg width="1024" height="1024" viewBox="0 0 1024 1024"
     xmlns="http://www.w3.org/2000/svg" role="img" aria-label="SyncWithLove App Icon">

  <!-- Background Gradient -->
  <defs>
    <linearGradient id="bg" x1="0%" y1="0%" x2="100%" y2="100%">
      <stop offset="0%" stop-color="#FF8EB0"/>
      <stop offset="100%" stop-color="#FF5F8A"/>
    </linearGradient>
  </defs>

  <rect x="0" y="0" width="1024" height="1024" rx="180" fill="url(#bg)" />

  <!-- Circular Sync Arrow -->
  <g transform="translate(180,210) scale(1.2)" fill="none" stroke="#FFFFFF" stroke-width="36" stroke-linecap="round">
    <path d="M480 210a240 240 0 1 0-310 310" stroke="#FFE4EC" />
    <!-- Arrow head -->
    <path d="M440 165 L520 130 L480 210 Z" fill="#FFFFFF"/>
  </g>

  <!-- Heart Icon -->
  <path d="
    M512 690
    c -120 -85 -240 -170 -275 -218
    c -52 -70 -45 -155 20 -210
    c 55 -48 150 -42 200 8
    c 20 20 40 50 55 70
    c 15 -20 35 -50 55 -70
    c 50 -50 145 -56 200 -8
    c 65 55 72 140 20 210
    c -35 48 -155 133 -275 218z"
    fill="white"
    transform="scale(0.90) translate(60, 60)"
  />
</svg>
