<?xml version="1.0" encoding="utf-8"?>
<svg xmlns="http://www.w3.org/2000/svg" viewBox="0 0 64 64" width="64" height="64" role="img" aria-label="SyncWithLove">
  <!-- Background transparent -->
  <!-- Circular arrow -->
  <g fill="none" stroke="#FFFFFF" stroke-width="3.6" stroke-linecap="round" stroke-linejoin="round" transform="translate(0,0)">
    <path d="M49.5 24.5a17.5 17.5 0 1 0-22.5 22.5" stroke="#FF7AA0"/>
    <!-- Arrow head -->
    <path d="M46.8 20.3 L51.5 18.0 L49.0 22.5 Z" fill="#FF7AA0" transform="translate(-3,2)"/>
  </g>

  <!-- Heart shape (center) -->
  <path d="M32 44s-12.5-8.7-16-12.5c-4-4.5-4-9.5-1-12.5 3-3 8-2.6 11 0 1.9 1.6 4.1 4.4 6 6.5 1.9-2.1 4.1-4.9 6-6.5 3-2.6 8-3 11 0 3 3 3 8-1 12.5-3.5 3.8-16 12.5-16 12.5z"
        fill="#FF6B91"/>
  <!-- Thin highlight -->
  <path d="M22 26c1.6-2.2 4.4-4.2 6.8-2.8 1.3.7 2.4 2.2 3.2 3.4 0 0 .8-1 2-2.2 1.8-1.8 5.3-3.6 7.6-1.2 2.6 2.8 2.3 6.4 0 8.7-3.5 3.8-14.6 11.9-14.6 11.9S23 35 22 26z" fill="#FF8EB0" opacity="0.35"/>
</svg>
